<?xml version="1.0" encoding="UTF-8"?>
<svg id="Layer_1" data-name="Layer 1" xmlns="http://www.w3.org/2000/svg" viewBox="0 0 473.96 397.84">
  <defs>
    <style>
      .cls-1 {
        fill: #f1f4f6;
      }

      .cls-2 {
        fill: #fff;
      }

      .cls-3 {
        fill: #49192e;
      }

      .cls-4 {
        fill: #024d41;
      }

      .cls-5 {
        fill: #4d471d;
      }

      .cls-6 {
        fill: #600f1d;
      }

      .cls-7 {
        fill: #3c2246;
      }
    </style>
  </defs>
  <path class="cls-7" d="M390.95,250.95c-13.84,51.19-47.58,94.2-92.43,120.19h175.44v-120.19h-83Z"/>
  <path class="cls-7" d="M333.81,52.73c33.78,31.18,56.73,73.92,62.56,121.95h77.59V52.73h-140.15Z"/>
  <circle class="cls-6" cx="198.92" cy="198.92" r="198.92"/>
  <circle class="cls-4" cx="198.06" cy="198.89" r="164.17"/>
  <path class="cls-5" d="M13.85,271.31l-.63-1.53C1.52,238.98-2.65,204.94,2.45,170.35c2.14-14.52,5.81-28.48,10.84-41.73l.56-1.16,84.1,32.31,72.38,14.46,25.97-14.57,36.11,12.67,5.07,30.41-4.43,26.61-43.98,7.47-19.18-25.54L13.85,271.31l84.1-32.31"/>
  <path class="cls-3" d="M306.52,199.47c0,60.04-48.67,108.71-108.71,108.71-56.45,0-102.86-43.03-108.2-98.09h83.19c.04.1.09.21.13.31,4.21,9.56,13.76,16.23,24.87,16.23,15,0,27.17-12.16,27.17-27.17s-12.16-27.17-27.17-27.17c-11,0-20.48,6.54-24.74,15.94h-83.4c5.62-54.77,51.89-97.49,108.14-97.49,60.04,0,108.71,48.67,108.71,108.71Z"/>
  <path class="cls-2" d="M82.58,352.71s-.07,0-.11-.03c-8.35-6.3-16.25-13.33-23.45-20.91-.06-.06-.05-.15,0-.21.06-.06.15-.05.21,0,7.2,7.56,15.08,14.59,23.42,20.88.07.05.08.14.03.21-.03.03-.06.05-.1.06Z"/>
  <path class="cls-2" d="M122.92,376.02s-.05,0-.07-.01c-9.68-4.12-19.1-9.08-27.98-14.73-.07-.04-.09-.14-.05-.2.04-.07.14-.09.2-.05,8.87,5.65,18.27,10.6,27.94,14.71.08.03.11.12.08.19-.02.05-.07.08-.12.09Z"/>
  <path class="cls-2" d="M167.22,388.83s-.03,0-.04,0c-10.37-1.68-20.67-4.24-30.62-7.6-.08-.03-.12-.11-.09-.19s.11-.12.19-.09c9.94,3.35,20.22,5.91,30.57,7.58.08.01.14.09.12.17-.01.07-.07.12-.13.12Z"/>
  <path class="cls-2" d="M270.77,376.88c-.06,0-.13-.03-.15-.09-.03-.08,0-.16.08-.19,9.57-3.94,18.88-8.69,27.68-14.13.07-.04.16-.02.2.05.04.07.02.16-.05.2-8.82,5.44-18.14,10.2-27.73,14.15-.01,0-.03,0-.04.01Z"/>
  <path class="cls-2" d="M227.37,389.4c-.06,0-.12-.06-.13-.12-.01-.08.04-.16.12-.17,10.22-1.65,20.37-4.14,30.18-7.42.08-.03.16.02.19.09.03.08-.02.16-.09.19-9.83,3.28-20,5.78-30.23,7.43-.01,0-.03,0-.04,0Z"/>
  <path class="cls-2" d="M310.43,354.73c-.05,0-.1-.02-.14-.06-.05-.07-.03-.16.03-.21,8.46-6.15,16.47-13.04,23.81-20.49.06-.06.15-.06.21,0,.06.06.06.15,0,.21-7.35,7.46-15.37,14.36-23.85,20.52-.02.02-.05.03-.07.03Z"/>
  <path class="cls-2" d="M343.96,323.62s-.08,0-.11-.03c-.06-.05-.07-.15-.02-.21,6.78-8,12.94-16.61,18.31-25.61.04-.07.13-.09.2-.05.07.04.09.13.05.2-5.38,9.01-11.55,17.64-18.34,25.65-.03.03-.06.05-.1.05Z"/>
  <path class="cls-2" d="M351.27,84.12s-.09-.02-.12-.06c-6.3-8.38-13.34-16.3-20.92-23.53-.06-.06-.06-.15,0-.21.06-.06.15-.06.21,0,7.59,7.24,14.64,15.17,20.95,23.57.05.07.04.16-.03.21-.03.02-.06.03-.09.03Z"/>
  <path class="cls-2" d="M319.57,51.05s-.07-.01-.09-.03c-8.08-6.63-16.78-12.63-25.84-17.85-.07-.04-.1-.13-.05-.2.04-.07.13-.1.2-.05,9.08,5.23,17.79,11.24,25.88,17.88.06.05.07.15.02.21-.03.04-.07.05-.11.05Z"/>
  <path class="cls-2" d="M280.97,26.48s-.04,0-.06-.01c-9.33-4.47-19.09-8.21-29.02-11.12-.08-.02-.12-.11-.1-.18.02-.08.11-.12.18-.1,9.95,2.91,19.73,6.66,29.07,11.14.07.04.1.12.07.2-.03.05-.08.08-.13.08Z"/>
  <path class="cls-2" d="M238.04,11.85s-.02,0-.03,0c-10.16-2.16-20.56-3.5-30.93-3.99-.08,0-.15-.07-.14-.15,0-.08.07-.16.15-.14,10.39.48,20.81,1.83,30.98,3.99.08.02.13.1.11.18-.01.07-.08.12-.15.12Z"/>
  <path class="cls-2" d="M161.33,11.23c-.07,0-.13-.05-.15-.12-.02-.08.04-.16.12-.17,10.35-2.03,20.94-3.21,31.48-3.5,0,0,0,0,0,0,.08,0,.15.06.15.14,0,.08-.06.15-.14.15-10.53.3-21.1,1.47-31.43,3.5,0,0-.02,0-.03,0Z"/>
  <path class="cls-2" d="M118.07,25.21c-.06,0-.11-.03-.13-.09-.03-.07,0-.16.07-.2,9.54-4.39,19.51-8.02,29.65-10.79.08-.02.16.02.18.1.02.08-.02.16-.1.18-10.12,2.76-20.07,6.39-29.6,10.78-.02,0-.04.01-.06.01Z"/>
  <path class="cls-2" d="M78.75,49.45s-.09-.02-.12-.06c-.05-.06-.04-.16.02-.21,8.23-6.57,17.07-12.49,26.26-17.61.07-.04.16-.01.2.06.04.07.01.16-.06.2-9.18,5.11-18,11.03-26.22,17.59-.03.02-.06.03-.09.03Z"/>
  <path class="cls-2" d="M46.26,82.55s-.06-.01-.09-.03c-.07-.05-.08-.14-.03-.21,6.37-8.3,13.47-16.13,21.11-23.27.06-.06.15-.05.21,0,.06.06.05.15,0,.21-7.63,7.13-14.72,14.95-21.08,23.24-.03.04-.07.06-.12.06Z"/>
  <path class="cls-2" d="M173.43,397.08s-.02,0-.03,0c-.08,0-.14-.08-.13-.17l4.23-34.03c.01-.08.08-.14.17-.13.08,0,.14.08.13.17l-4.23,34.03c0,.07-.06.12-.13.13Z"/>
  <path class="cls-2" d="M167.27,388.87s-.02,0-.03,0c-.08-.01-.14-.08-.13-.17l3.17-24.28c.01-.08.08-.14.17-.13.08.01.14.08.13.17l-3.17,24.28c0,.07-.06.12-.13.13Z"/>
  <path class="cls-2" d="M136.69,381.32s-.05,0-.07,0c-.08-.03-.11-.12-.09-.19l9.75-25.29c.03-.08.12-.11.19-.09s.11.12.09.19l-9.75,25.29c-.02.05-.07.09-.12.09Z"/>
  <path class="cls-2" d="M126.96,385.55s-.05,0-.07-.01c-.08-.03-.11-.12-.08-.19l13.01-31.85c.03-.08.12-.11.19-.08.08.03.11.12.08.19l-13.01,31.85c-.02.05-.07.09-.12.09Z"/>
  <path class="cls-2" d="M123,376.09s-.05,0-.07,0c-.08-.03-.11-.12-.08-.19l9.09-22.73c.03-.08.12-.11.19-.08.08.03.11.12.08.19l-9.09,22.73c-.02.05-.07.09-.12.09Z"/>
  <path class="cls-2" d="M84.79,363.29s-.07,0-.1-.03c-.07-.05-.08-.14-.03-.21l19.95-28.01c.05-.07.14-.08.21-.03.07.05.08.14.03.21l-19.95,28.01s-.06.06-.11.06Z"/>
  <path class="cls-2" d="M95.08,361.34s-.07,0-.1-.03c-.07-.05-.08-.14-.04-.21l14.12-20c.05-.07.14-.08.21-.04.07.05.08.14.04.21l-14.12,20s-.06.06-.11.06Z"/>
  <path class="cls-2" d="M82.67,352.79s-.07,0-.11-.03c-.07-.05-.08-.14-.03-.21l14.78-19.61c.05-.07.14-.08.21-.03.07.05.08.14.03.21l-14.78,19.61s-.06.05-.1.06Z"/>
  <path class="cls-2" d="M372.18,295.48s-.06,0-.09-.02l-29.93-16.87c-.07-.04-.1-.13-.06-.2.04-.07.13-.1.2-.06l29.93,16.87c.07.04.1.13.06.2-.02.04-.07.07-.11.07Z"/>
  <path class="cls-2" d="M362.35,298.08s-.06,0-.09-.02l-21.61-11.69c-.07-.04-.1-.13-.06-.2.04-.07.13-.1.2-.06l21.61,11.69c.07.04.1.13.06.2-.02.04-.07.07-.11.08Z"/>
  <path class="cls-2" d="M344.01,323.67s-.08,0-.12-.04l-18.01-16.58c-.06-.06-.06-.15,0-.21.06-.06.15-.06.21,0l18.01,16.58c.06.06.06.15,0,.21-.03.03-.06.04-.09.05Z"/>
  <path class="cls-2" d="M370.06,285.59s-.08.01-.12,0c-.07-.04-.1-.12-.07-.2,4.58-9.43,8.41-19.31,11.38-29.35.02-.08.11-.12.18-.1.08.02.12.11.1.18-2.97,10.06-6.81,19.96-11.39,29.4-.02.04-.05.06-.08.07Z"/>
  <path class="cls-2" d="M390.41,251.32s-.06.01-.09,0l-33.19-8.91c-.08-.02-.13-.1-.1-.18.02-.08.1-.13.18-.1l33.19,8.91c.08.02.13.1.1.18-.01.05-.05.08-.09.1Z"/>
  <path class="cls-2" d="M381.54,256.28s-.06.01-.09,0l-23.84-5.96c-.08-.02-.13-.1-.11-.18.02-.08.1-.13.18-.11l23.84,5.96c.08.02.13.1.11.18-.01.05-.05.09-.09.1Z"/>
  <path class="cls-2" d="M370.12,285.62s-.08.01-.12,0l-21.57-11.59c-.07-.04-.1-.13-.06-.2.04-.07.13-.1.2-.06l21.57,11.59c.07.04.1.13.06.2-.02.03-.05.06-.08.07Z"/>
  <path class="cls-2" d="M344.63,333.94s-.08,0-.12-.04l-25.32-23.19c-.06-.06-.06-.15,0-.21.05-.06.15-.07.21,0l25.32,23.19c.06.06.06.15,0,.21-.03.03-.06.04-.09.05Z"/>
  <path class="cls-2" d="M334.33,334.26s-.08,0-.12-.04l-18.16-16.49c-.06-.05-.07-.15-.01-.21s.15-.07.21-.01l18.16,16.49c.06.05.07.15.01.21-.03.03-.06.04-.09.05Z"/>
  <path class="cls-2" d="M310.48,354.83c-.05,0-.11-.02-.14-.07l-13.6-20.4c-.05-.07-.03-.16.04-.21.07-.04.16-.03.21.04l13.6,20.4c.05.07.03.16-.04.21-.02.01-.04.02-.07.02Z"/>
  <path class="cls-2" d="M308.53,364.98c-.05,0-.11-.02-.14-.06l-19.12-28.51c-.05-.07-.03-.16.04-.21.07-.05.16-.03.21.04l19.12,28.51c.05.07.03.16-.04.21-.02.01-.04.02-.07.02Z"/>
  <path class="cls-2" d="M298.58,362.78c-.05,0-.11-.02-.14-.07l-13.45-20.49c-.04-.07-.03-.16.04-.21.07-.05.16-.03.21.04l13.45,20.49c.04.07.03.16-.04.21-.02.01-.04.02-.07.02Z"/>
  <path class="cls-2" d="M270.86,376.92c-.07,0-.13-.03-.15-.1l-8.51-22.96c-.03-.08.01-.16.09-.19.08-.03.16.01.19.09l8.51,22.96c.03.08-.01.16-.09.19-.01,0-.02,0-.04,0Z"/>
  <path class="cls-2" d="M266.8,386.29c-.07,0-.13-.03-.15-.1l-11.9-32.24c-.03-.08.01-.16.09-.19.08-.03.16.01.19.09l11.9,32.24c.03.08-.01.16-.09.19-.01,0-.02,0-.04,0Z"/>
  <path class="cls-2" d="M257.4,381.93c-.07,0-.13-.03-.16-.1l-8.44-23.04c-.03-.08.01-.16.09-.19.08-.03.16.01.19.09l8.44,23.04c.03.08-.01.16-.09.19-.01,0-.02,0-.04,0Z"/>
  <path class="cls-2" d="M181.43,390.84c-.06-.02-.1-.09-.09-.15,0-.08.08-.14.16-.13,10.29,1.09,20.74,1.33,31.07.74.08,0,.15.06.16.14,0,.08-.06.15-.14.16-10.34.6-20.81.35-31.12-.74-.01,0-.03,0-.04-.01Z"/>
  <path class="cls-2" d="M212.37,391.49c-.07-.01-.12-.06-.12-.13l-2.11-24.45c0-.08.05-.15.14-.16.08,0,.15.05.16.14l2.11,24.45c0,.08-.05.15-.14.16-.01,0-.02,0-.04,0Z"/>
  <path class="cls-2" d="M227.07,389.12c-.08,0-.15-.05-.16-.13l-2.59-24.36c0-.08.05-.15.13-.16s.15.05.16.13l2.59,24.36c0,.08-.05.15-.13.16Z"/>
  <path class="cls-2" d="M220.71,397.34c-.08,0-.15-.05-.16-.13l-3.64-34.2c0-.08.05-.15.13-.16s.15.05.16.13l3.64,34.2c0,.08-.05.15-.13.16Z"/>
  <path class="cls-2" d="M181.22,390.66s-.02,0-.04,0c-.08-.01-.14-.09-.13-.17l3.32-24.29c.01-.08.09-.14.17-.13.08.01.14.09.13.17l-3.32,24.29c0,.07-.06.12-.13.13Z"/>
  <path class="cls-2" d="M59.22,331.89s-.09-.01-.13-.05c-.05-.06-.05-.16.01-.21l18.41-16.18c.06-.05.16-.05.21.01.05.06.05.16-.01.21l-18.41,16.18s-.05.03-.08.04Z"/>
  <path class="cls-2" d="M48.99,331.42s-.09-.01-.13-.05c-.05-.06-.05-.16.01-.21l25.72-22.71c.06-.05.15-.05.21.01.05.06.05.16-.01.21l-25.72,22.71s-.05.03-.08.04Z"/>
  <path class="cls-2" d="M160.8,39.11c-.07,0-.13-.05-.14-.11l-7.81-33.47c-.02-.08.03-.16.11-.18.08-.02.16.03.18.11l7.81,33.47c.02.08-.03.16-.11.18-.01,0-.02,0-.03,0Z"/>
  <path class="cls-2" d="M153.45,38.34c-.07,0-.13-.05-.14-.11l-5.72-23.81c-.02-.08.03-.16.11-.18.08-.02.16.03.18.11l5.72,23.81c.02.08-.03.16-.11.18-.01,0-.02,0-.03,0Z"/>
  <path class="cls-2" d="M130.5,49.39c-.05,0-.11-.03-.13-.08l-12.37-24.12c-.04-.07,0-.16.06-.2.07-.04.16,0,.2.06l12.37,24.12c.04.07,0,.16-.06.2-.02.01-.04.02-.07.02Z"/>
  <path class="cls-2" d="M124.31,52.41c-.05,0-.1-.03-.13-.08l-16.31-30.3c-.04-.07-.01-.16.06-.2.07-.04.16-.01.2.06l16.31,30.3c.04.07.01.16-.06.2-.02.01-.05.02-.07.02Z"/>
  <path class="cls-2" d="M116.51,53.57c-.05,0-.1-.03-.13-.08l-11.44-21.64c-.04-.07-.01-.16.06-.2.07-.04.16-.01.2.06l11.44,21.64c.04.07.01.16-.06.2-.02.01-.05.02-.07.02Z"/>
  <path class="cls-2" d="M91.23,74.43s-.08-.02-.11-.05l-22.8-25.74c-.05-.06-.05-.15.01-.21.06-.05.15-.05.21.01l22.8,25.74c.05.06.05.15-.01.21-.03.02-.06.04-.1.04Z"/>
  <path class="cls-2" d="M95.02,67.94s-.08-.02-.11-.05l-16.15-18.4c-.05-.06-.05-.16.01-.21.06-.05.15-.05.21.01l16.15,18.4c.05.06.05.16-.01.21-.03.02-.06.04-.1.04Z"/>
  <path class="cls-2" d="M84.2,77.29s-.08-.02-.11-.05l-16.77-17.93c-.06-.06-.05-.15,0-.21.06-.06.15-.05.21,0l16.77,17.93c.06.06.05.15,0,.21-.03.03-.07.04-.1.04Z"/>
  <path class="cls-2" d="M333.39,105.58s-.09-.02-.12-.06c-.05-.07-.03-.16.04-.21l27.98-19.86c.07-.05.16-.03.21.04.05.07.03.16-.04.21l-27.98,19.86s-.06.03-.09.03Z"/>
  <path class="cls-2" d="M331.08,98.09s-.09-.02-.12-.06c-.05-.07-.03-.16.04-.21l20.25-13.91c.07-.05.16-.03.21.04.05.07.03.16-.04.21l-20.25,13.91s-.06.03-.08.03Z"/>
  <path class="cls-2" d="M314.22,79.07s-.07-.01-.1-.04c-.06-.05-.07-.15-.01-.21l16.15-18.4c.05-.06.15-.07.21-.01.06.05.07.15.01.21l-16.15,18.4s-.07.05-.11.05Z"/>
  <path class="cls-2" d="M307.19,76.06s-.07-.01-.1-.04c-.06-.05-.07-.15-.01-.21l22.72-25.66c.05-.06.15-.07.21-.01.06.05.07.15.01.21l-22.72,25.66s-.07.05-.11.05Z"/>
  <path class="cls-2" d="M303.33,69.41s-.07-.01-.1-.04c-.06-.05-.07-.15-.01-.21l16.31-18.32c.05-.06.15-.07.21-.01.06.05.07.15.01.21l-16.31,18.32s-.07.05-.11.05Z"/>
  <path class="cls-2" d="M282.38,54.96s-.05,0-.07-.02c-.07-.04-.1-.13-.06-.2l11.36-21.72c.04-.07.13-.1.2-.06.07.04.1.13.06.2l-11.36,21.72c-.03.05-.08.08-.13.08Z"/>
  <path class="cls-2" d="M274.73,53.72s-.05,0-.07-.02c-.07-.04-.1-.13-.06-.2l16-30.38c.04-.07.13-.1.2-.06.07.04.1.13.06.2l-16,30.38c-.03.05-.08.08-.13.08Z"/>
  <path class="cls-2" d="M269.86,48.39s-.05,0-.07-.02c-.07-.04-.1-.13-.06-.2l11.21-21.8c.04-.07.13-.1.2-.06.07.04.1.13.06.2l-11.21,21.8c-.03.05-.08.08-.13.08Z"/>
  <path class="cls-2" d="M245.97,39.19s-.02,0-.04,0c-.08-.02-.13-.1-.11-.18l6.03-23.73c.02-.08.1-.13.18-.11.08.02.13.1.11.18l-6.03,23.73c-.02.07-.08.11-.14.11Z"/>
  <path class="cls-2" d="M238.55,39.88s-.02,0-.04,0c-.08-.02-.13-.1-.11-.18l8.43-33.31c.02-.08.1-.13.18-.11.08.02.13.1.11.18l-8.43,33.31c-.02.07-.08.11-.14.11Z"/>
  <path class="cls-2" d="M232.14,35.71s-.02,0-.04,0c-.08-.02-.13-.1-.11-.18l5.95-23.81c.02-.08.1-.13.18-.11.08.02.13.1.11.18l-5.95,23.81c-.02.07-.08.11-.14.11Z"/>
  <path class="cls-2" d="M207.17,32.46c-.08,0-.15-.07-.15-.15V7.81c0-.08.07-.15.15-.15s.15.07.15.15v24.5c0,.08-.07.15-.15.15Z"/>
  <path class="cls-2" d="M199.98,34.86c-.08,0-.15-.07-.15-.15V.32c0-.08.07-.15.15-.15s.15.07.15.15v34.4c0,.08-.07.15-.15.15Z"/>
  <path class="cls-2" d="M192.79,32.31h0c-.08,0-.15-.07-.15-.15l.08-24.5c0-.08.07-.15.15-.15h0c.08,0,.15.07.15.15l-.08,24.5c0,.08-.07.15-.15.15Z"/>
  <path class="cls-2" d="M167.29,35.09c-.07,0-.13-.05-.14-.11l-5.87-23.81c-.02-.08.03-.16.11-.18.08-.02.16.03.18.11l5.87,23.81c.02.08-.03.16-.11.18-.01,0-.02,0-.04,0Z"/>
  <path class="cls-2" d="M66.34,96.77s-.06,0-.09-.03l-20.02-14.15c-.07-.05-.08-.14-.04-.21.05-.07.14-.08.21-.04l20.02,14.15c.07.05.08.14.04.21-.03.04-.07.06-.12.06Z"/>
  <path class="cls-2" d="M64.18,104.04s-.06,0-.09-.03l-27.98-19.86c-.07-.05-.08-.14-.04-.21.05-.07.14-.08.21-.04l27.98,19.86c.07.05.08.14.04.21-.03.04-.07.06-.12.06Z"/>
  <path class="cls-2" d="M12.93,127.3c-.06,0-.11-.03-.14-.09l-7.65-18.47c-.03-.08,0-.16.08-.19.08-.03.16,0,.19.08l7.65,18.47c.03.08,0,.16-.08.19-.02,0-.04.01-.06.01Z"/>
  <path class="cls-2" d="M9.61,92.52c-.06,0-.12-.04-.14-.1-.02-.08.02-.16.1-.19l26.59-8.35c.08-.02.16.02.19.1.02.08-.02.16-.1.19l-26.59,8.35s-.03,0-.04,0Z"/>
  <path class="cls-2" d="M351.27,84.12s-.09-.02-.12-.06c-6.3-8.38-13.34-16.3-20.92-23.53-.06-.06-.06-.15,0-.21.06-.06.15-.06.21,0,7.59,7.24,14.64,15.17,20.95,23.57.05.07.04.16-.03.21-.03.02-.06.03-.09.03Z"/>
  <path class="cls-2" d="M333.39,105.58s-.09-.02-.12-.06c-.05-.07-.03-.16.04-.21l27.98-19.86c.07-.05.16-.03.21.04.05.07.03.16-.04.21l-27.98,19.86s-.06.03-.09.03Z"/>
  <path class="cls-2" d="M374.26,123.9c-.06,0-.11-.03-.14-.09-4.12-9.64-9.07-19-14.71-27.83-.04-.07-.02-.16.05-.2.07-.04.16-.02.2.05,5.65,8.84,10.61,18.22,14.73,27.88.03.08,0,.16-.08.19-.02,0-.04.01-.06.01Z"/>
  <path class="cls-2" d="M351.79,140.52c-.06,0-.11-.04-.14-.09-.03-.08,0-.16.08-.19l31.92-12.68c.08-.03.16,0,.19.08.03.08,0,.16-.08.19l-31.92,12.68s-.04.01-.05.01Z"/>
  <path class="cls-2" d="M351.4,132.64c-.06,0-.12-.04-.14-.1-.03-.08,0-.16.09-.19l22.88-8.66c.08-.03.16,0,.19.09.03.08,0,.16-.09.19l-22.88,8.66s-.03,0-.05,0Z"/>
  <path class="cls-2" d="M363.78,171.99c-.06-.01-.11-.06-.12-.12-.01-.08.04-.16.12-.17l24.11-4.13c.08-.01.16.04.17.12.01.08-.04.16-.12.17l-24.11,4.13s-.04,0-.05,0Z"/>
  <path class="cls-2" d="M339.5,110.14s-.09-.02-.12-.06c-.05-.07-.03-.16.04-.21l20.1-13.99c.07-.05.16-.03.21.04.05.07.03.16-.04.21l-20.1,13.99s-.06.03-.08.03Z"/>
  <path class="cls-2" d="M361.3,178.63c-.07,0-.14-.05-.15-.13-.01-.08.05-.16.13-.17l34.09-4.64c.09-.01.16.05.17.13.01.08-.05.16-.13.17l-34.09,4.64s-.01,0-.02,0Z"/>
  <path class="cls-2" d="M387.83,167.43c-.07,0-.13-.05-.15-.12-1.94-10.3-4.75-20.51-8.35-30.35-.03-.08.01-.16.09-.19.08-.03.16.01.19.09,3.61,9.86,6.42,20.09,8.36,30.4.02.08-.04.16-.12.17,0,0-.02,0-.03,0Z"/>
  <path class="cls-2" d="M356.89,146.55c-.06,0-.11-.03-.14-.09-.03-.08,0-.16.08-.19l22.65-9.43c.08-.03.16,0,.19.08.03.08,0,.16-.08.19l-22.65,9.43s-.04.01-.06.01Z"/>
  <g>
    <path class="cls-1" d="M159.38,71.58v-8.42h1.22l2.76,7.43h.02l2.71-7.43h1.21v8.42h-.8v-7.51h-.02l-2.76,7.51h-.75l-2.77-7.51h-.02v7.51h-.8Z"/>
    <path class="cls-1" d="M169.44,71.58v-8.42h.8v8.42h-.8Z"/>
    <path class="cls-1" d="M172.41,71.58v-8.42h2.88c.23,0,.46,0,.69.02.23.01.45.04.67.08.22.04.43.11.64.19.21.09.41.2.6.34.28.2.51.45.69.74.18.29.32.6.43.92.11.32.18.65.22.98.04.33.06.64.06.92s-.02.57-.05.85-.09.57-.17.85-.18.54-.31.8c-.13.25-.29.49-.49.7-.2.22-.41.39-.64.53-.23.13-.47.24-.73.31s-.52.12-.79.15-.55.04-.83.04h-2.88ZM173.21,70.9h1.91c.36,0,.7-.02,1.01-.06.32-.04.64-.15.97-.32.28-.14.51-.33.69-.57.18-.24.32-.5.43-.79s.18-.58.22-.9c.04-.31.06-.61.06-.9,0-.3-.02-.61-.06-.93s-.11-.62-.22-.9c-.11-.28-.26-.55-.44-.78-.19-.24-.43-.43-.73-.59-.25-.13-.55-.22-.89-.26s-.69-.06-1.04-.06h-1.91v7.07Z"/>
    <path class="cls-1" d="M180.86,71.58v-8.42h2.88c.23,0,.46,0,.69.02.23.01.45.04.67.08.22.04.43.11.64.19.21.09.41.2.6.34.28.2.51.45.69.74.18.29.32.6.43.92.11.32.18.65.22.98.04.33.06.64.06.92s-.02.57-.05.85-.09.57-.17.85-.18.54-.31.8c-.13.25-.29.49-.49.7-.2.22-.41.39-.64.53-.23.13-.47.24-.73.31s-.52.12-.79.15-.55.04-.83.04h-2.88ZM181.66,70.9h1.91c.36,0,.7-.02,1.01-.06.32-.04.64-.15.97-.32.28-.14.51-.33.69-.57.18-.24.32-.5.43-.79s.18-.58.22-.9c.04-.31.06-.61.06-.9,0-.3-.02-.61-.06-.93s-.11-.62-.22-.9c-.11-.28-.26-.55-.44-.78-.19-.24-.43-.43-.73-.59-.25-.13-.55-.22-.89-.26s-.69-.06-1.04-.06h-1.91v7.07Z"/>
    <path class="cls-1" d="M189.31,71.58v-8.42h.8v7.75h4.52v.68h-5.31Z"/>
    <path class="cls-1" d="M195.81,71.58v-8.42h5.6v.68h-4.81v3.04h4.34v.68h-4.34v3.35h4.93v.68h-5.72Z"/>
    <path class="cls-1" d="M207,67.75v3.83h-.8v-8.42h3.3c.93,0,1.64.17,2.13.52.49.35.74.91.74,1.69,0,.53-.11.95-.32,1.26-.21.31-.56.58-1.05.8.25.09.44.21.58.37.14.16.25.35.32.56s.12.43.13.67.03.46.04.68c0,.32.02.58.04.8.02.21.04.38.07.52s.06.24.1.31.09.13.14.17v.07h-.88c-.09-.13-.15-.32-.18-.57s-.06-.51-.08-.78c-.02-.27-.04-.54-.05-.8s-.03-.47-.06-.63c-.05-.23-.12-.41-.23-.54-.1-.14-.23-.24-.38-.31-.15-.07-.31-.12-.5-.14-.18-.02-.37-.04-.57-.04h-2.5ZM209.48,67.07c.3,0,.57-.03.82-.09.25-.06.47-.16.66-.3.19-.14.34-.31.44-.52.11-.21.16-.46.16-.76,0-.31-.06-.57-.17-.77-.11-.2-.27-.36-.46-.48-.19-.12-.41-.2-.66-.25-.25-.05-.5-.07-.77-.07h-2.53v3.24h2.48Z"/>
    <path class="cls-1" d="M214.3,71.58v-8.42h.8v8.42h-.8Z"/>
    <path class="cls-1" d="M218.07,64.23h-.02v7.35h-.8v-8.42h.9l4.87,7.36h.02v-7.36h.8v8.42h-.92l-4.84-7.35Z"/>
    <path class="cls-1" d="M229.3,67.9v-.68h3.6v4.35h-.68v-1.44c-.15.25-.32.48-.51.68-.19.21-.41.38-.66.53s-.54.26-.87.33c-.33.08-.7.12-1.11.12-.53,0-1.02-.09-1.47-.28-.45-.19-.84-.47-1.17-.84s-.58-.84-.77-1.4-.27-1.22-.27-1.97c0-.62.08-1.19.23-1.73.16-.53.4-1,.72-1.39.32-.39.73-.7,1.22-.93.49-.23,1.06-.34,1.73-.34.44,0,.86.05,1.25.16.39.11.73.27,1.04.5.31.22.57.5.78.83.21.33.36.72.46,1.18h-.82c-.07-.31-.19-.59-.36-.84-.17-.25-.37-.46-.6-.63-.23-.17-.5-.3-.78-.39-.29-.09-.59-.13-.9-.13-.55,0-1.03.1-1.43.29-.4.2-.73.47-.98.82-.26.36-.45.78-.57,1.28-.12.5-.18,1.04-.18,1.63,0,.47.07.91.2,1.33.14.42.34.79.6,1.11s.58.57.96.76c.38.19.81.28,1.29.28.23,0,.46-.02.7-.08.24-.05.48-.13.7-.25.23-.12.44-.27.63-.46.19-.19.36-.42.5-.69.13-.27.22-.54.27-.83s.08-.59.09-.91h-2.84Z"/>
  </g>
  <g>
    <path class="cls-1" d="M157.36,340.47v-8.42h1.22l2.76,7.43h.02l2.71-7.43h1.21v8.42h-.8v-7.51h-.02l-2.76,7.51h-.75l-2.77-7.51h-.02v7.51h-.8Z"/>
    <path class="cls-1" d="M167.42,340.47v-8.42h.8v8.42h-.8Z"/>
    <path class="cls-1" d="M170.39,340.47v-8.42h2.88c.23,0,.46,0,.69.02.23.01.45.04.67.08.22.04.43.11.64.19.21.09.41.2.6.34.28.2.51.45.69.74.18.29.32.6.43.92.11.32.18.65.22.98.04.33.06.64.06.92s-.02.57-.05.85c-.04.29-.09.57-.17.85-.08.28-.18.54-.31.8-.13.25-.29.49-.49.7-.2.22-.41.39-.64.53-.23.13-.47.24-.73.31s-.52.12-.79.15-.55.04-.83.04h-2.88ZM171.19,339.79h1.91c.36,0,.7-.02,1.01-.06s.64-.15.97-.32c.28-.14.51-.33.69-.57.18-.24.32-.51.43-.79.11-.29.18-.58.22-.9.04-.31.06-.61.06-.9,0-.3-.02-.61-.06-.93-.04-.32-.11-.62-.22-.9-.11-.28-.26-.55-.44-.78-.19-.24-.43-.43-.73-.59-.25-.13-.55-.22-.89-.26s-.69-.06-1.04-.06h-1.91v7.07Z"/>
    <path class="cls-1" d="M178.84,340.47v-8.42h2.88c.23,0,.46,0,.69.02.23.01.45.04.67.08.22.04.43.11.64.19.21.09.41.2.6.34.28.2.51.45.69.74.18.29.32.6.43.92.11.32.18.65.22.98.04.33.06.64.06.92s-.02.57-.05.85c-.04.29-.09.57-.17.85-.08.28-.18.54-.31.8-.13.25-.29.49-.49.7-.2.22-.41.39-.64.53-.23.13-.47.24-.73.31s-.52.12-.79.15-.55.04-.83.04h-2.88ZM179.64,339.79h1.91c.36,0,.7-.02,1.01-.06s.64-.15.97-.32c.28-.14.51-.33.69-.57.18-.24.32-.51.43-.79.11-.29.18-.58.22-.9.04-.31.06-.61.06-.9,0-.3-.02-.61-.06-.93-.04-.32-.11-.62-.22-.9-.11-.28-.26-.55-.44-.78-.19-.24-.43-.43-.73-.59-.25-.13-.55-.22-.89-.26s-.69-.06-1.04-.06h-1.91v7.07Z"/>
    <path class="cls-1" d="M187.29,340.47v-8.42h.8v7.75h4.52v.68h-5.31Z"/>
    <path class="cls-1" d="M193.79,340.47v-8.42h5.6v.68h-4.81v3.04h4.34v.68h-4.34v3.35h4.93v.68h-5.72Z"/>
    <path class="cls-1" d="M204.98,336.64v3.83h-.8v-8.42h3.3c.93,0,1.64.17,2.13.52.49.35.74.91.74,1.69,0,.53-.11.95-.32,1.26-.21.31-.56.58-1.05.79.25.09.44.21.58.38.14.16.25.35.32.56s.12.43.13.67.03.46.04.68c0,.32.02.58.04.8.02.21.04.38.07.51s.06.24.1.31c.04.07.09.13.14.17v.07h-.88c-.09-.13-.15-.32-.18-.57s-.06-.51-.08-.78c-.02-.27-.04-.54-.05-.8-.01-.26-.03-.47-.06-.63-.05-.23-.12-.41-.23-.54-.1-.14-.23-.24-.38-.31-.15-.07-.31-.12-.5-.14-.18-.02-.37-.04-.57-.04h-2.5ZM207.46,335.97c.3,0,.57-.03.82-.09s.47-.16.66-.3c.19-.14.34-.31.44-.52.11-.21.16-.46.16-.76,0-.31-.06-.57-.17-.77-.11-.2-.27-.36-.46-.48-.19-.12-.41-.2-.66-.25-.25-.05-.5-.07-.77-.07h-2.53v3.24h2.48Z"/>
    <path class="cls-1" d="M212.28,340.47v-8.42h.8v8.42h-.8Z"/>
    <path class="cls-1" d="M216.05,333.12h-.02v7.35h-.8v-8.42h.9l4.87,7.36h.02v-7.36h.8v8.42h-.92l-4.84-7.35Z"/>
    <path class="cls-1" d="M227.28,336.8v-.68h3.6v4.35h-.68v-1.44c-.15.25-.32.48-.51.68-.19.21-.41.38-.66.53-.25.14-.54.26-.87.33s-.7.12-1.11.12c-.53,0-1.02-.09-1.47-.28-.45-.19-.84-.47-1.17-.84-.33-.37-.58-.84-.77-1.4-.18-.56-.27-1.22-.27-1.97,0-.62.08-1.19.23-1.73.16-.53.4-1,.72-1.39.32-.39.73-.7,1.22-.93s1.06-.34,1.73-.34c.44,0,.86.05,1.25.16.39.11.73.28,1.04.5.31.22.57.5.78.83.21.33.36.72.46,1.18h-.82c-.07-.31-.19-.59-.36-.84-.17-.25-.37-.46-.6-.63-.23-.17-.5-.3-.78-.39-.29-.09-.59-.13-.9-.13-.55,0-1.03.1-1.43.29s-.73.47-.98.83c-.26.35-.45.78-.57,1.28-.12.5-.18,1.04-.18,1.63,0,.47.07.91.2,1.33.14.42.34.79.6,1.11.26.32.58.57.96.76s.81.28,1.29.28c.23,0,.46-.03.7-.08.24-.05.48-.13.7-.25.23-.12.44-.27.63-.46.19-.19.36-.42.5-.69.13-.26.22-.54.27-.83.05-.29.08-.59.09-.91h-2.84Z"/>
  </g>
  <g>
    <path class="cls-1" d="M154.63,138.89v-.68h3.6v4.35h-.68v-1.44c-.15.25-.32.48-.51.68-.19.21-.41.38-.66.53s-.54.26-.87.33c-.33.08-.7.12-1.11.12-.53,0-1.02-.09-1.47-.28-.45-.19-.84-.47-1.17-.84s-.58-.84-.77-1.4-.27-1.22-.27-1.97c0-.62.08-1.19.23-1.73.16-.53.4-1,.72-1.39.32-.39.73-.7,1.22-.93.49-.23,1.06-.34,1.73-.34.44,0,.86.05,1.25.16.39.11.73.27,1.04.5.31.22.57.5.78.83.21.33.36.72.46,1.18h-.82c-.07-.31-.19-.59-.36-.84-.17-.25-.37-.46-.6-.63-.23-.17-.5-.3-.78-.39-.29-.09-.59-.13-.9-.13-.55,0-1.03.1-1.43.29-.4.2-.73.47-.98.82-.26.36-.45.78-.57,1.28-.12.5-.18,1.04-.18,1.63,0,.47.07.91.2,1.33.14.42.34.79.6,1.11s.58.57.96.76c.38.19.81.28,1.29.28.23,0,.46-.02.7-.08.24-.05.48-.13.7-.25.23-.12.44-.27.63-.46.19-.19.36-.42.5-.69.13-.27.22-.54.27-.83s.08-.59.09-.91h-2.84Z"/>
    <path class="cls-1" d="M159.83,138.37c0-.62.08-1.19.25-1.73.17-.54.42-1.01.74-1.41s.73-.72,1.22-.95c.48-.23,1.04-.35,1.67-.35s1.23.12,1.73.35c.5.23.91.55,1.24.95.33.4.58.87.75,1.42.17.54.25,1.12.25,1.74s-.08,1.18-.25,1.71c-.17.53-.42,1-.74,1.4-.33.4-.74.72-1.23.95-.49.23-1.06.35-1.71.35s-1.22-.12-1.71-.35c-.49-.23-.9-.55-1.23-.95-.33-.4-.57-.87-.74-1.4-.16-.53-.25-1.11-.25-1.71ZM163.76,142.11c.55,0,1.02-.1,1.41-.31.39-.21.72-.48.97-.82s.44-.74.56-1.19c.12-.45.18-.92.18-1.42,0-.58-.07-1.11-.22-1.57-.14-.46-.35-.86-.63-1.19-.27-.33-.6-.58-.99-.75-.39-.17-.83-.26-1.31-.26-.54,0-1,.11-1.4.32s-.72.49-.97.84c-.25.35-.44.75-.56,1.2-.12.45-.18.92-.18,1.42s.06.98.18,1.43c.12.45.31.85.56,1.19s.58.62.97.82c.39.2.87.3,1.42.3Z"/>
    <path class="cls-1" d="M169.26,142.57v-8.42h.8v7.75h4.52v.68h-5.31Z"/>
    <path class="cls-1" d="M175.76,142.57v-8.42h2.88c.23,0,.46,0,.69.02.23.01.45.04.67.08.22.04.43.11.64.19.21.09.41.2.6.34.28.2.51.45.69.74.18.29.32.6.43.92.11.32.18.65.22.98.04.33.06.64.06.92s-.02.57-.05.85-.09.57-.17.85-.18.54-.31.8c-.13.25-.29.49-.49.7-.2.22-.41.39-.64.53-.23.13-.47.24-.73.31s-.52.12-.79.15-.55.04-.83.04h-2.88ZM176.56,141.89h1.91c.36,0,.7-.02,1.01-.06.32-.04.64-.15.97-.32.28-.14.51-.33.69-.57.18-.24.32-.5.43-.79s.18-.58.22-.9c.04-.31.06-.61.06-.9,0-.3-.02-.61-.06-.93s-.11-.62-.22-.9c-.11-.28-.26-.55-.44-.78-.19-.24-.43-.43-.73-.59-.25-.13-.55-.22-.89-.26s-.69-.06-1.04-.06h-1.91v7.07Z"/>
    <path class="cls-1" d="M184.21,142.57v-8.42h5.6v.68h-4.81v3.04h4.34v.68h-4.34v3.35h4.93v.68h-5.72Z"/>
    <path class="cls-1" d="M192.16,135.22h-.02v7.35h-.8v-8.42h.9l4.87,7.36h.02v-7.36h.8v8.42h-.92l-4.84-7.35Z"/>
    <path class="cls-1" d="M209.04,136.59c-.16-.72-.47-1.23-.91-1.53-.44-.3-1.03-.46-1.74-.46-.51,0-.94.1-1.31.3-.37.2-.67.48-.91.82-.24.34-.41.74-.53,1.19s-.17.92-.17,1.42c0,.47.05.93.15,1.38.1.45.26.86.49,1.21.23.35.53.64.91.86.38.22.86.33,1.44.33.36,0,.69-.06.98-.18s.56-.28.78-.49c.22-.21.41-.45.56-.73.15-.28.27-.59.35-.92h.83c-.09.41-.23.79-.41,1.15-.18.36-.42.68-.71.95s-.65.49-1.06.65-.91.24-1.47.24c-.65,0-1.2-.12-1.66-.36-.46-.24-.84-.56-1.13-.97-.29-.41-.51-.88-.64-1.41-.13-.53-.2-1.1-.2-1.7,0-.8.1-1.49.3-2.05.2-.56.47-1.02.83-1.38s.76-.61,1.24-.77c.48-.16.99-.24,1.56-.24.43,0,.83.06,1.2.17.37.11.7.28.98.51s.52.5.7.84c.18.33.31.72.38,1.15h-.82Z"/>
    <path class="cls-1" d="M211.79,142.57v-8.42h.8v8.42h-.8Z"/>
    <path class="cls-1" d="M215.55,138.74v3.83h-.8v-8.42h3.3c.93,0,1.64.17,2.13.52.49.35.74.91.74,1.69,0,.53-.11.95-.32,1.26-.21.31-.56.58-1.05.8.25.09.44.21.58.37.14.16.25.35.32.56s.12.43.13.67.03.46.04.68c0,.32.02.58.04.8.02.21.04.38.07.52s.06.24.1.31.09.13.14.17v.07h-.88c-.09-.13-.15-.32-.18-.57s-.06-.51-.08-.78c-.02-.27-.04-.54-.05-.8s-.03-.47-.06-.63c-.05-.23-.12-.41-.23-.54-.1-.14-.23-.24-.38-.31-.15-.07-.31-.12-.5-.14-.18-.02-.37-.04-.57-.04h-2.5ZM218.03,138.06c.3,0,.57-.03.82-.09.25-.06.47-.16.66-.3.19-.14.34-.31.44-.52.11-.21.16-.46.16-.76,0-.31-.06-.57-.17-.77-.11-.2-.27-.36-.46-.48-.19-.12-.41-.2-.66-.25-.25-.05-.5-.07-.77-.07h-2.53v3.24h2.48Z"/>
    <path class="cls-1" d="M228.55,136.59c-.16-.72-.47-1.23-.91-1.53-.44-.3-1.03-.46-1.74-.46-.51,0-.94.1-1.31.3-.37.2-.67.48-.91.82-.24.34-.41.74-.53,1.19s-.17.92-.17,1.42c0,.47.05.93.15,1.38.1.45.26.86.49,1.21.23.35.53.64.91.86.38.22.86.33,1.44.33.36,0,.69-.06.98-.18s.56-.28.78-.49c.22-.21.41-.45.56-.73.15-.28.27-.59.35-.92h.83c-.09.41-.23.79-.41,1.15-.18.36-.42.68-.71.95s-.65.49-1.06.65-.91.24-1.47.24c-.65,0-1.2-.12-1.66-.36-.46-.24-.84-.56-1.13-.97-.29-.41-.51-.88-.64-1.41-.13-.53-.2-1.1-.2-1.7,0-.8.1-1.49.3-2.05.2-.56.47-1.02.83-1.38s.76-.61,1.24-.77c.48-.16.99-.24,1.56-.24.43,0,.83.06,1.2.17.37.11.7.28.98.51s.52.5.7.84c.18.33.31.72.38,1.15h-.82Z"/>
    <path class="cls-1" d="M231.02,142.57v-8.42h.8v7.75h4.52v.68h-5.31Z"/>
    <path class="cls-1" d="M237.52,142.57v-8.42h5.61v.68h-4.81v3.04h4.34v.68h-4.34v3.35h4.93v.68h-5.72Z"/>
  </g>
  <g>
    <path class="cls-1" d="M154.63,263.02v-.68h3.6v4.35h-.68v-1.44c-.15.25-.32.48-.51.68-.19.21-.41.38-.66.53-.25.14-.54.26-.87.33s-.7.12-1.11.12c-.53,0-1.02-.09-1.47-.28-.45-.19-.84-.47-1.17-.84-.33-.37-.58-.84-.77-1.4-.18-.56-.27-1.22-.27-1.97,0-.62.08-1.19.23-1.73.16-.53.4-1,.72-1.39.32-.39.73-.7,1.22-.93s1.06-.34,1.73-.34c.44,0,.86.05,1.25.16.39.11.73.28,1.04.5.31.22.57.5.78.83.21.33.36.72.46,1.18h-.82c-.07-.31-.19-.59-.36-.84-.17-.25-.37-.46-.6-.63-.23-.17-.5-.3-.78-.39-.29-.09-.59-.13-.9-.13-.55,0-1.03.1-1.43.29s-.73.47-.98.83c-.26.35-.45.78-.57,1.28-.12.5-.18,1.04-.18,1.63,0,.47.07.91.2,1.33.14.42.34.79.6,1.11.26.32.58.57.96.76s.81.28,1.29.28c.23,0,.46-.03.7-.08.24-.05.48-.13.7-.25.23-.12.44-.27.63-.46.19-.19.36-.42.5-.69.13-.26.22-.54.27-.83.05-.29.08-.59.09-.91h-2.84Z"/>
    <path class="cls-1" d="M159.83,262.49c0-.62.08-1.19.25-1.73.17-.54.42-1.01.74-1.41.33-.4.73-.72,1.22-.95.48-.23,1.04-.35,1.67-.35s1.23.11,1.73.34c.5.23.91.55,1.24.95.33.4.58.87.75,1.42.17.54.25,1.12.25,1.74s-.08,1.18-.25,1.71c-.17.53-.42,1-.74,1.4-.33.4-.74.72-1.23.95-.49.23-1.06.35-1.71.35s-1.22-.12-1.71-.35c-.49-.23-.9-.55-1.23-.95-.33-.4-.57-.87-.74-1.4-.16-.53-.25-1.11-.25-1.71ZM163.76,266.24c.55,0,1.02-.1,1.41-.31.39-.21.72-.48.97-.83.25-.34.44-.74.56-1.19.12-.45.18-.92.18-1.42,0-.59-.07-1.11-.22-1.57-.14-.46-.35-.86-.63-1.19-.27-.33-.6-.58-.99-.75-.39-.17-.83-.26-1.31-.26-.54,0-1,.11-1.4.32s-.72.49-.97.84c-.25.35-.44.75-.56,1.2-.12.45-.18.92-.18,1.42s.06.97.18,1.43c.12.45.31.85.56,1.19.25.34.58.62.97.82.39.2.87.3,1.42.3Z"/>
    <path class="cls-1" d="M169.26,266.69v-8.42h.8v7.75h4.52v.68h-5.31Z"/>
    <path class="cls-1" d="M175.76,266.69v-8.42h2.88c.23,0,.46,0,.69.02.23.01.45.04.67.08.22.04.43.11.64.19.21.09.41.2.6.34.28.2.51.45.69.74.18.29.32.6.43.92.11.32.18.65.22.98.04.33.06.64.06.92s-.02.57-.05.85c-.04.29-.09.57-.17.85-.08.28-.18.54-.31.8-.13.25-.29.49-.49.7-.2.22-.41.39-.64.53-.23.13-.47.24-.73.31s-.52.12-.79.15-.55.04-.83.04h-2.88ZM176.56,266.01h1.91c.36,0,.7-.02,1.01-.06s.64-.15.97-.32c.28-.14.51-.33.69-.57.18-.24.32-.51.43-.79.11-.29.18-.58.22-.9.04-.31.06-.61.06-.9,0-.3-.02-.61-.06-.93-.04-.32-.11-.62-.22-.9-.11-.28-.26-.55-.44-.78-.19-.24-.43-.43-.73-.59-.25-.13-.55-.22-.89-.26s-.69-.06-1.04-.06h-1.91v7.07Z"/>
    <path class="cls-1" d="M184.21,266.69v-8.42h5.6v.68h-4.81v3.04h4.34v.68h-4.34v3.35h4.93v.68h-5.72Z"/>
    <path class="cls-1" d="M192.16,259.34h-.02v7.35h-.8v-8.42h.9l4.87,7.36h.02v-7.36h.8v8.42h-.92l-4.84-7.35Z"/>
    <path class="cls-1" d="M209.04,260.71c-.16-.72-.47-1.23-.91-1.53-.44-.3-1.03-.46-1.74-.46-.51,0-.94.1-1.31.3-.37.2-.67.48-.91.82-.24.34-.41.74-.53,1.19s-.17.92-.17,1.42c0,.47.05.93.15,1.38.1.45.26.86.49,1.21.23.35.53.64.91.86.38.22.86.33,1.44.33.36,0,.69-.06.98-.18s.56-.28.78-.49c.22-.21.41-.45.56-.73.15-.28.27-.59.35-.92h.83c-.09.41-.23.79-.41,1.15-.18.36-.42.68-.71.95-.29.27-.65.49-1.06.65s-.91.24-1.47.24c-.65,0-1.2-.12-1.66-.36-.46-.24-.84-.56-1.13-.96-.29-.41-.51-.88-.64-1.41-.13-.53-.2-1.1-.2-1.7,0-.8.1-1.49.3-2.05.2-.56.47-1.02.83-1.38.35-.35.76-.61,1.24-.77.48-.16.99-.24,1.56-.24.43,0,.83.06,1.2.17.37.11.7.28.98.51.28.23.52.51.7.84.18.33.31.72.38,1.15h-.82Z"/>
    <path class="cls-1" d="M211.79,266.69v-8.42h.8v8.42h-.8Z"/>
    <path class="cls-1" d="M215.55,262.87v3.83h-.8v-8.42h3.3c.93,0,1.64.17,2.13.52.49.35.74.91.74,1.69,0,.53-.11.95-.32,1.26-.21.31-.56.58-1.05.79.25.09.44.21.58.38.14.16.25.35.32.56s.12.43.13.67.03.46.04.68c0,.32.02.58.04.8.02.21.04.38.07.51s.06.24.1.31c.04.07.09.13.14.17v.07h-.88c-.09-.13-.15-.32-.18-.57s-.06-.51-.08-.78c-.02-.27-.04-.54-.05-.8-.01-.26-.03-.47-.06-.63-.05-.23-.12-.41-.23-.54-.1-.14-.23-.24-.38-.31-.15-.07-.31-.12-.5-.14-.18-.02-.37-.04-.57-.04h-2.5ZM218.03,262.19c.3,0,.57-.03.82-.09s.47-.16.66-.3c.19-.14.34-.31.44-.52.11-.21.16-.46.16-.76,0-.31-.06-.57-.17-.77-.11-.2-.27-.36-.46-.48-.19-.12-.41-.2-.66-.25-.25-.05-.5-.07-.77-.07h-2.53v3.24h2.48Z"/>
    <path class="cls-1" d="M228.55,260.71c-.16-.72-.47-1.23-.91-1.53-.44-.3-1.03-.46-1.74-.46-.51,0-.94.1-1.31.3-.37.2-.67.48-.91.82-.24.34-.41.74-.53,1.19s-.17.92-.17,1.42c0,.47.05.93.15,1.38.1.45.26.86.49,1.21.23.35.53.64.91.86.38.22.86.33,1.44.33.36,0,.69-.06.98-.18s.56-.28.78-.49c.22-.21.41-.45.56-.73.15-.28.27-.59.35-.92h.83c-.09.41-.23.79-.41,1.15-.18.36-.42.68-.71.95-.29.27-.65.49-1.06.65s-.91.24-1.47.24c-.65,0-1.2-.12-1.66-.36-.46-.24-.84-.56-1.13-.96-.29-.41-.51-.88-.64-1.41-.13-.53-.2-1.1-.2-1.7,0-.8.1-1.49.3-2.05.2-.56.47-1.02.83-1.38.35-.35.76-.61,1.24-.77.48-.16.99-.24,1.56-.24.43,0,.83.06,1.2.17.37.11.7.28.98.51.28.23.52.51.7.84.18.33.31.72.38,1.15h-.82Z"/>
    <path class="cls-1" d="M231.02,266.69v-8.42h.8v7.75h4.52v.68h-5.31Z"/>
    <path class="cls-1" d="M237.52,266.69v-8.42h5.61v.68h-4.81v3.04h4.34v.68h-4.34v3.35h4.93v.68h-5.72Z"/>
  </g>
  <g>
    <path class="cls-1" d="M177.36,202.36c.03.37.12.69.25.95.14.26.31.47.53.64.21.16.46.28.74.36s.58.11.9.11c.37,0,.7-.05.97-.14s.5-.22.67-.38c.17-.16.3-.35.38-.56.08-.21.12-.43.12-.67,0-.33-.07-.59-.22-.8-.15-.2-.34-.37-.58-.5s-.51-.23-.82-.31-.62-.15-.95-.23-.64-.16-.95-.26c-.31-.1-.58-.24-.82-.41s-.43-.39-.58-.66c-.15-.27-.22-.61-.22-1.02,0-.29.06-.57.18-.84s.3-.52.54-.73c.24-.21.54-.38.9-.5.36-.12.77-.19,1.24-.19s.89.07,1.25.2c.35.13.65.31.88.54s.41.5.53.8c.12.3.18.63.18.97h-.76c0-.32-.06-.6-.17-.83-.11-.23-.27-.43-.46-.57-.19-.15-.42-.26-.67-.33-.25-.07-.51-.11-.77-.11-.41,0-.75.06-1.02.17-.28.11-.5.26-.66.44-.16.18-.28.38-.34.6-.06.22-.07.44-.04.66.05.27.16.49.33.66.17.16.38.3.63.4.25.1.52.19.83.26s.61.14.92.21c.31.07.61.16.91.26.29.1.55.24.78.41.23.17.41.39.54.66.14.27.2.61.2,1.01,0,.78-.27,1.38-.81,1.81-.54.43-1.29.64-2.27.64-.44,0-.84-.06-1.22-.17-.37-.11-.7-.28-.97-.52-.27-.23-.49-.51-.64-.85-.15-.34-.23-.74-.23-1.2h.77Z"/>
    <path class="cls-1" d="M183.42,196.45h6.13v.68h-2.67v7.75h-.8v-7.75h-2.67v-.68Z"/>
    <path class="cls-1" d="M189.91,204.88l3.31-8.42h.9l3.23,8.42h-.82l-.97-2.64h-3.84l-.99,2.64h-.82ZM192,201.56h3.3l-1.65-4.42-1.65,4.42Z"/>
    <path class="cls-1" d="M202.07,201.21v-.68h3.6v4.35h-.68v-1.44c-.15.25-.32.48-.51.68-.19.21-.41.38-.66.53s-.54.26-.87.33c-.33.08-.7.12-1.11.12-.53,0-1.02-.09-1.47-.28-.45-.19-.84-.47-1.17-.84s-.58-.84-.77-1.4-.27-1.22-.27-1.97c0-.62.08-1.19.23-1.73.16-.53.4-1,.72-1.39.32-.39.73-.7,1.22-.93.49-.23,1.06-.34,1.73-.34.44,0,.86.05,1.25.16.39.11.73.27,1.04.5.31.22.57.5.78.83.21.33.36.72.46,1.18h-.82c-.07-.31-.19-.59-.36-.84-.17-.25-.37-.46-.6-.63-.23-.17-.5-.3-.78-.39-.29-.09-.59-.13-.9-.13-.55,0-1.03.1-1.43.29-.4.2-.73.47-.98.82-.26.36-.45.78-.57,1.28-.12.5-.18,1.04-.18,1.63,0,.47.07.91.2,1.33.14.42.34.79.6,1.11s.58.57.96.76c.38.19.81.28,1.29.28.23,0,.46-.02.7-.08.24-.05.48-.13.7-.25.23-.12.44-.27.63-.46.19-.19.36-.42.5-.69.13-.27.22-.54.27-.83s.08-.59.09-.91h-2.84Z"/>
    <path class="cls-1" d="M207.59,204.88v-8.42h5.6v.68h-4.81v3.04h4.34v.68h-4.34v3.35h4.93v.68h-5.72Z"/>
  </g>
  <g>
    <path class="cls-1" d="M408.2,105.13v3.83h-.79v-8.42h3.3c.93,0,1.64.17,2.13.52s.74.91.74,1.69c0,.53-.11.95-.32,1.26-.21.31-.56.58-1.05.8.25.09.44.21.58.37.14.16.25.35.32.56s.11.43.13.67.03.46.04.68c0,.32.02.58.04.8.02.21.04.38.07.52s.06.24.1.31.09.13.14.17v.07h-.88c-.09-.13-.15-.32-.18-.57-.03-.25-.06-.51-.08-.78-.02-.27-.04-.54-.05-.8s-.03-.47-.06-.63c-.05-.23-.12-.41-.23-.54-.11-.14-.23-.24-.38-.31-.15-.07-.31-.12-.5-.14-.18-.02-.37-.04-.57-.04h-2.5ZM410.68,104.45c.3,0,.57-.03.83-.09.25-.06.47-.16.66-.3.19-.14.33-.31.44-.52s.16-.46.16-.76c0-.31-.06-.57-.17-.77-.11-.2-.26-.36-.46-.48-.19-.12-.41-.2-.66-.25-.25-.05-.5-.07-.77-.07h-2.53v3.24h2.48Z"/>
    <path class="cls-1" d="M414.89,104.76c0-.62.08-1.19.25-1.73.17-.54.42-1.01.74-1.41.33-.4.73-.72,1.22-.95.48-.23,1.04-.35,1.67-.35s1.23.12,1.73.35.91.55,1.24.95c.33.4.58.87.75,1.42.17.54.25,1.12.25,1.74s-.08,1.18-.25,1.71-.42,1-.74,1.4c-.33.4-.74.72-1.23.95-.49.23-1.06.35-1.71.35s-1.22-.12-1.71-.35c-.49-.23-.9-.55-1.23-.95-.33-.4-.57-.87-.74-1.4-.16-.53-.25-1.11-.25-1.71ZM418.83,108.5c.55,0,1.02-.1,1.41-.31.39-.21.72-.48.97-.82s.44-.74.56-1.19c.12-.45.18-.92.18-1.42,0-.58-.07-1.11-.22-1.57-.14-.46-.35-.86-.63-1.19-.27-.33-.6-.58-.99-.75-.39-.17-.83-.26-1.31-.26-.54,0-1,.11-1.4.32s-.72.49-.97.84c-.25.35-.44.75-.56,1.2-.12.45-.18.92-.18,1.42s.06.98.18,1.43c.12.45.31.85.56,1.19.25.34.58.62.97.82.39.2.87.3,1.42.3Z"/>
    <path class="cls-1" d="M426.91,104.6l2.54-4.06h.92l-3.05,4.75v3.67h-.8v-3.62l-3.01-4.81h.91l2.48,4.06Z"/>
    <path class="cls-1" d="M430.7,108.96l3.31-8.42h.9l3.23,8.42h-.82l-.97-2.64h-3.84l-1,2.64h-.82ZM432.78,105.64h3.3l-1.65-4.42-1.65,4.42Z"/>
    <path class="cls-1" d="M439.28,108.96v-8.42h.79v7.75h4.52v.68h-5.31Z"/>
    <path class="cls-1" d="M398.97,123v-8.42h3.04c.49,0,.91.05,1.26.15.35.1.64.25.86.43.22.19.38.41.49.67.1.26.15.55.15.86s-.04.55-.12.77c-.08.21-.18.39-.3.54-.12.14-.27.26-.43.34-.16.08-.33.14-.5.17v.02c.58.09,1.02.32,1.3.69.29.37.43.84.43,1.4,0,.44-.07.81-.21,1.11s-.33.55-.57.74c-.24.19-.53.32-.87.4-.34.08-.71.12-1.11.12h-3.44ZM399.76,118.3h2.01c.41,0,.76-.04,1.04-.11.28-.07.51-.17.68-.31.17-.14.29-.3.37-.5.07-.2.11-.43.11-.68s-.04-.49-.13-.67-.22-.33-.41-.44c-.19-.11-.43-.19-.73-.25-.3-.05-.67-.08-1.11-.08h-1.84v3.04ZM399.76,122.32h2.02c.44,0,.82-.02,1.14-.06.32-.04.59-.12.8-.24.21-.12.37-.29.47-.51.11-.22.16-.52.16-.88s-.06-.63-.18-.85c-.12-.21-.28-.38-.5-.5-.22-.12-.48-.2-.78-.24-.3-.04-.64-.06-1.02-.06h-2.12v3.35Z"/>
    <path class="cls-1" d="M406,123l3.31-8.42h.9l3.23,8.42h-.82l-.97-2.64h-3.84l-1,2.64h-.82ZM408.08,119.68h3.3l-1.65-4.42-1.65,4.42Z"/>
    <path class="cls-1" d="M414.58,123v-8.42h.79v7.75h4.52v.68h-5.31Z"/>
    <path class="cls-1" d="M427.06,117.02c-.16-.72-.47-1.23-.91-1.53-.45-.3-1.03-.46-1.74-.46-.51,0-.94.1-1.31.3-.37.2-.67.48-.91.82-.24.34-.41.74-.53,1.19-.11.45-.17.92-.17,1.42,0,.47.05.93.15,1.38.1.45.26.86.49,1.21.23.35.53.64.91.86.38.22.86.33,1.44.33.36,0,.69-.06.98-.18.3-.12.56-.28.78-.49.22-.21.41-.45.56-.73.15-.28.27-.59.34-.92h.83c-.09.41-.23.79-.41,1.15-.18.36-.42.68-.71.95-.29.27-.65.49-1.06.65s-.91.24-1.47.24c-.65,0-1.2-.12-1.66-.36-.46-.24-.84-.56-1.13-.97-.29-.41-.5-.88-.64-1.41s-.2-1.1-.2-1.7c0-.8.1-1.49.3-2.05.2-.56.47-1.02.82-1.38.35-.35.76-.61,1.24-.77.48-.16,1-.24,1.56-.24.43,0,.83.06,1.2.17.37.11.7.28.98.51.28.23.52.5.7.84.18.33.31.72.38,1.15h-.82Z"/>
    <path class="cls-1" d="M429.2,118.8c0-.62.08-1.19.25-1.73.17-.54.42-1.01.74-1.41.33-.4.73-.72,1.22-.95.48-.23,1.04-.35,1.67-.35s1.23.12,1.73.35.91.55,1.24.95c.33.4.58.87.75,1.42.17.54.25,1.12.25,1.74s-.08,1.18-.25,1.71-.42,1-.74,1.4c-.33.4-.74.72-1.23.95-.49.23-1.06.35-1.71.35s-1.22-.12-1.71-.35c-.49-.23-.9-.55-1.23-.95-.33-.4-.57-.87-.74-1.4-.16-.53-.25-1.11-.25-1.71ZM433.14,122.54c.55,0,1.02-.1,1.41-.31.39-.21.72-.48.97-.82s.44-.74.56-1.19c.12-.45.18-.92.18-1.42,0-.58-.07-1.11-.22-1.57-.14-.46-.35-.86-.63-1.19-.27-.33-.6-.58-.99-.75-.39-.17-.83-.26-1.31-.26-.54,0-1,.11-1.4.32s-.72.49-.97.84c-.25.35-.44.75-.56,1.2-.12.45-.18.92-.18,1.42s.06.98.18,1.43c.12.45.31.85.56,1.19.25.34.58.62.97.82.39.2.87.3,1.42.3Z"/>
    <path class="cls-1" d="M439.43,115.65h-.02v7.35h-.79v-8.42h.9l4.87,7.36h.02v-7.36h.8v8.42h-.92l-4.84-7.35Z"/>
    <path class="cls-1" d="M449.67,118.64l2.54-4.06h.92l-3.05,4.75v3.67h-.8v-3.62l-3.01-4.81h.91l2.48,4.06Z"/>
  </g>
  <g>
    <path class="cls-1" d="M401.82,306.6v3.83h-.79v-8.42h3.3c.93,0,1.64.17,2.13.52.49.35.74.91.74,1.69,0,.53-.11.95-.32,1.26-.21.31-.56.58-1.05.79.25.09.44.21.58.38s.25.35.32.56.11.43.13.67.03.46.04.68c0,.32.02.58.04.8.02.21.04.38.07.51s.06.24.1.31c.04.07.09.13.14.17v.07h-.88c-.09-.13-.15-.32-.18-.57-.03-.25-.06-.51-.08-.78-.02-.27-.04-.54-.05-.8-.01-.26-.03-.47-.06-.63-.05-.23-.12-.41-.23-.54-.11-.14-.23-.24-.38-.31-.15-.07-.31-.12-.5-.14-.18-.02-.37-.04-.57-.04h-2.5ZM404.3,305.92c.3,0,.57-.03.83-.09s.47-.16.66-.3.33-.31.44-.52c.11-.21.16-.46.16-.76,0-.31-.06-.57-.17-.77-.11-.2-.26-.36-.46-.48-.19-.12-.41-.2-.66-.25-.25-.05-.5-.07-.77-.07h-2.53v3.24h2.48Z"/>
    <path class="cls-1" d="M408.51,306.23c0-.62.08-1.19.25-1.73.17-.54.42-1.01.74-1.41.33-.4.73-.72,1.22-.95.48-.23,1.04-.35,1.67-.35s1.23.11,1.73.34.91.55,1.24.95c.33.4.58.87.75,1.42.17.54.25,1.12.25,1.74s-.08,1.18-.25,1.71-.42,1-.74,1.4c-.33.4-.74.72-1.23.95-.49.23-1.06.35-1.71.35s-1.22-.12-1.71-.35c-.49-.23-.9-.55-1.23-.95-.33-.4-.57-.87-.74-1.4-.16-.53-.25-1.11-.25-1.71ZM412.45,309.97c.55,0,1.02-.1,1.41-.31.39-.21.72-.48.97-.83.25-.34.44-.74.56-1.19.12-.45.18-.92.18-1.42,0-.59-.07-1.11-.22-1.57s-.35-.86-.63-1.19c-.27-.33-.6-.58-.99-.75-.39-.17-.83-.26-1.31-.26-.54,0-1,.11-1.4.32s-.72.49-.97.84c-.25.35-.44.75-.56,1.2-.12.45-.18.92-.18,1.42s.06.97.18,1.43c.12.45.31.85.56,1.19.25.34.58.62.97.82.39.2.87.3,1.42.3Z"/>
    <path class="cls-1" d="M420.53,306.06l2.54-4.06h.92l-3.05,4.75v3.67h-.8v-3.62l-3.01-4.81h.91l2.48,4.06Z"/>
    <path class="cls-1" d="M424.32,310.43l3.31-8.42h.9l3.23,8.42h-.82l-.97-2.64h-3.84l-1,2.64h-.82ZM426.4,307.1h3.3l-1.65-4.42-1.65,4.42Z"/>
    <path class="cls-1" d="M432.9,310.43v-8.42h.79v7.75h4.52v.68h-5.31Z"/>
    <path class="cls-1" d="M392.59,324.47v-8.42h3.04c.49,0,.91.05,1.26.15.35.1.64.25.86.43.22.19.38.41.49.67.1.26.15.55.15.86s-.04.55-.12.77c-.08.21-.18.39-.3.54s-.27.26-.43.34c-.16.08-.33.14-.5.17v.02c.58.09,1.02.32,1.3.69.29.37.43.84.43,1.4,0,.44-.07.81-.21,1.11s-.33.55-.57.74-.53.32-.87.4c-.34.08-.71.12-1.11.12h-3.44ZM393.39,319.76h2.01c.41,0,.76-.04,1.04-.1.28-.07.51-.17.68-.31.17-.14.29-.3.37-.5.07-.2.11-.43.11-.68s-.04-.49-.13-.67-.22-.33-.41-.44c-.19-.11-.43-.2-.73-.25-.3-.05-.67-.08-1.11-.08h-1.84v3.04ZM393.39,323.79h2.02c.44,0,.82-.02,1.14-.06.32-.04.59-.12.8-.24.21-.12.37-.29.47-.52.11-.22.16-.52.16-.88s-.06-.63-.18-.85c-.12-.21-.28-.38-.5-.5s-.48-.2-.78-.24c-.3-.04-.64-.06-1.02-.06h-2.12v3.35Z"/>
    <path class="cls-1" d="M399.62,324.47l3.31-8.42h.9l3.23,8.42h-.82l-.97-2.64h-3.84l-1,2.64h-.82ZM401.71,321.14h3.3l-1.65-4.42-1.65,4.42Z"/>
    <path class="cls-1" d="M408.2,324.47v-8.42h.79v7.75h4.52v.68h-5.31Z"/>
    <path class="cls-1" d="M420.68,318.49c-.16-.72-.47-1.23-.91-1.53-.45-.3-1.03-.46-1.74-.46-.51,0-.94.1-1.31.3-.37.2-.67.48-.91.82-.24.34-.41.74-.53,1.19-.11.45-.17.92-.17,1.42,0,.47.05.93.15,1.38.1.45.26.86.49,1.21.23.35.53.64.91.86.38.22.86.33,1.44.33.36,0,.69-.06.98-.18.3-.12.56-.28.78-.49.22-.21.41-.45.56-.73.15-.28.27-.59.34-.92h.83c-.09.41-.23.79-.41,1.15-.18.36-.42.68-.71.95-.29.27-.65.49-1.06.65s-.91.24-1.47.24c-.65,0-1.2-.12-1.66-.36-.46-.24-.84-.56-1.13-.96-.29-.41-.5-.88-.64-1.41s-.2-1.1-.2-1.7c0-.8.1-1.49.3-2.05.2-.56.47-1.02.82-1.38.35-.35.76-.61,1.24-.77.48-.16,1-.24,1.56-.24.43,0,.83.06,1.2.17.37.11.7.28.98.51.28.23.52.51.7.84.18.33.31.72.38,1.15h-.82Z"/>
    <path class="cls-1" d="M422.83,320.27c0-.62.08-1.19.25-1.73.17-.54.42-1.01.74-1.41.33-.4.73-.72,1.22-.95.48-.23,1.04-.35,1.67-.35s1.23.11,1.73.34.91.55,1.24.95c.33.4.58.87.75,1.42.17.54.25,1.12.25,1.74s-.08,1.18-.25,1.71-.42,1-.74,1.4c-.33.4-.74.72-1.23.95-.49.23-1.06.35-1.71.35s-1.22-.12-1.71-.35c-.49-.23-.9-.55-1.23-.95-.33-.4-.57-.87-.74-1.4-.16-.53-.25-1.11-.25-1.71ZM426.76,324.01c.55,0,1.02-.1,1.41-.31.39-.21.72-.48.97-.83.25-.34.44-.74.56-1.19.12-.45.18-.92.18-1.42,0-.59-.07-1.11-.22-1.57s-.35-.86-.63-1.19c-.27-.33-.6-.58-.99-.75-.39-.17-.83-.26-1.31-.26-.54,0-1,.11-1.4.32s-.72.49-.97.84c-.25.35-.44.75-.56,1.2-.12.45-.18.92-.18,1.42s.06.97.18,1.43c.12.45.31.85.56,1.19.25.34.58.62.97.82.39.2.87.3,1.42.3Z"/>
    <path class="cls-1" d="M433.05,317.12h-.02v7.35h-.79v-8.42h.9l4.87,7.36h.02v-7.36h.8v8.42h-.92l-4.84-7.35Z"/>
    <path class="cls-1" d="M443.29,320.1l2.54-4.06h.92l-3.05,4.75v3.67h-.8v-3.62l-3.01-4.81h.91l2.48,4.06Z"/>
  </g>
  <rect class="cls-6" x="167.27" y="10.42" width="64.01" height="16.17"/>
  <g>
    <path class="cls-1" d="M175.62,23.56v-8.42h3.04c.49,0,.91.05,1.26.15.35.1.64.25.86.43.22.19.38.41.49.67.1.26.15.55.15.86s-.04.55-.12.77c-.08.21-.18.39-.3.54-.12.14-.27.26-.43.34-.16.08-.33.14-.5.17v.02c.58.09,1.02.32,1.3.69s.43.84.43,1.4c0,.44-.07.81-.21,1.11-.14.3-.33.55-.57.74-.24.19-.53.32-.87.4-.34.08-.71.12-1.11.12h-3.44ZM176.42,18.85h2.01c.41,0,.76-.04,1.04-.11s.51-.17.68-.31c.17-.14.29-.3.37-.5.07-.2.11-.43.11-.68s-.04-.49-.13-.67c-.09-.18-.22-.33-.41-.44-.19-.11-.43-.19-.73-.25s-.67-.08-1.11-.08h-1.84v3.04ZM176.42,22.88h2.02c.44,0,.82-.02,1.14-.06.32-.04.59-.12.8-.24.21-.12.37-.29.47-.51.1-.22.16-.52.16-.88s-.06-.63-.18-.85c-.12-.21-.29-.38-.5-.5-.22-.12-.48-.2-.78-.24-.3-.04-.64-.06-1.02-.06h-2.12v3.35Z"/>
    <path class="cls-1" d="M183.1,19.35c0-.62.08-1.19.25-1.73.17-.54.42-1.01.74-1.41s.73-.72,1.22-.95c.48-.23,1.04-.35,1.67-.35s1.23.12,1.73.35c.5.23.91.55,1.24.95.33.4.58.87.75,1.42.17.54.25,1.12.25,1.74s-.08,1.18-.25,1.71c-.17.53-.42,1-.74,1.4-.33.4-.74.72-1.23.95-.49.23-1.06.35-1.71.35s-1.22-.12-1.71-.35c-.49-.23-.9-.55-1.23-.95-.33-.4-.57-.87-.74-1.4-.16-.53-.25-1.11-.25-1.71ZM187.03,23.1c.55,0,1.02-.1,1.41-.31.39-.21.72-.48.97-.82s.44-.74.56-1.19c.12-.45.18-.92.18-1.42,0-.58-.07-1.11-.22-1.57-.14-.46-.35-.86-.63-1.19-.27-.33-.6-.58-.99-.75-.39-.17-.83-.26-1.31-.26-.54,0-1,.11-1.4.32s-.72.49-.97.84c-.25.35-.44.75-.56,1.2-.12.45-.18.92-.18,1.42s.06.98.18,1.43c.12.45.31.85.56,1.19s.58.62.97.82c.39.2.87.3,1.42.3Z"/>
    <path class="cls-1" d="M192.2,19.35c0-.62.08-1.19.25-1.73.17-.54.42-1.01.74-1.41s.73-.72,1.22-.95c.48-.23,1.04-.35,1.67-.35s1.23.12,1.73.35c.5.23.91.55,1.24.95.33.4.58.87.75,1.42.17.54.25,1.12.25,1.74s-.08,1.18-.25,1.71c-.17.53-.42,1-.74,1.4-.33.4-.74.72-1.23.95-.49.23-1.06.35-1.71.35s-1.22-.12-1.71-.35c-.49-.23-.9-.55-1.23-.95-.33-.4-.57-.87-.74-1.4-.16-.53-.25-1.11-.25-1.71ZM196.13,23.1c.55,0,1.02-.1,1.41-.31.39-.21.72-.48.97-.82s.44-.74.56-1.19c.12-.45.18-.92.18-1.42,0-.58-.07-1.11-.22-1.57-.14-.46-.35-.86-.63-1.19-.27-.33-.6-.58-.99-.75-.39-.17-.83-.26-1.31-.26-.54,0-1,.11-1.4.32s-.72.49-.97.84c-.25.35-.44.75-.56,1.2-.12.45-.18.92-.18,1.42s.06.98.18,1.43c.12.45.31.85.56,1.19s.58.62.97.82c.39.2.87.3,1.42.3Z"/>
    <path class="cls-1" d="M200.87,15.13h6.13v.68h-2.67v7.75h-.8v-7.75h-2.67v-.68Z"/>
    <path class="cls-1" d="M208.13,23.56v-8.42h.8v3.62h4.98v-3.62h.8v8.42h-.8v-4.13h-4.98v4.13h-.8Z"/>
    <path class="cls-1" d="M216.91,21.04c.03.37.12.69.25.95.14.26.31.47.53.64.21.16.46.28.74.36s.58.11.9.11c.37,0,.7-.05.97-.14s.5-.22.67-.38c.17-.16.3-.35.38-.56.08-.21.12-.43.12-.67,0-.33-.07-.59-.22-.8-.15-.2-.34-.37-.58-.5s-.51-.23-.82-.31-.62-.15-.95-.23-.64-.16-.95-.26c-.31-.1-.58-.24-.82-.41s-.43-.39-.58-.66c-.15-.27-.22-.61-.22-1.02,0-.29.06-.57.18-.84s.3-.52.54-.73c.24-.21.54-.38.9-.5.36-.12.77-.19,1.24-.19s.89.07,1.25.2c.35.13.65.31.88.54s.41.5.53.8c.12.3.18.63.18.97h-.76c0-.32-.06-.6-.17-.83-.11-.23-.27-.43-.46-.57-.19-.15-.42-.26-.67-.33-.25-.07-.51-.11-.77-.11-.41,0-.75.06-1.02.17-.28.11-.5.26-.66.44-.16.18-.28.38-.34.6-.06.22-.07.44-.04.66.05.27.16.49.33.66.17.16.38.3.63.4.25.1.52.19.83.26s.61.14.92.21c.31.07.61.16.91.26.29.1.55.24.78.41.23.17.41.39.54.66.14.27.2.61.2,1.01,0,.78-.27,1.38-.81,1.81-.54.43-1.29.64-2.27.64-.44,0-.84-.06-1.22-.17-.37-.11-.7-.28-.97-.52-.27-.23-.49-.51-.64-.85-.15-.34-.23-.74-.23-1.2h.77Z"/>
  </g>
  <rect class="cls-6" x="164.83" y="368.14" width="64.01" height="16.17"/>
  <g>
    <path class="cls-1" d="M173.18,381.28v-8.42h3.04c.49,0,.91.05,1.26.15.35.1.64.25.86.43.22.19.38.41.49.67.1.26.15.55.15.86s-.04.55-.12.77c-.08.21-.18.39-.3.54s-.27.26-.43.34c-.16.08-.33.14-.5.17v.02c.58.09,1.02.32,1.3.69.28.37.43.84.43,1.4,0,.44-.07.81-.21,1.11-.14.3-.33.55-.57.74s-.53.32-.87.4-.71.12-1.11.12h-3.44ZM173.98,376.57h2.01c.41,0,.76-.04,1.04-.1.28-.07.51-.17.68-.31.17-.14.29-.3.37-.5.07-.2.11-.43.11-.68s-.04-.49-.13-.67c-.09-.18-.22-.33-.41-.44s-.43-.2-.73-.25-.67-.08-1.11-.08h-1.84v3.04ZM173.98,380.6h2.02c.44,0,.82-.02,1.14-.06.32-.04.59-.12.8-.24.21-.12.37-.29.47-.52.1-.22.16-.52.16-.88s-.06-.63-.18-.85c-.12-.21-.29-.38-.5-.5s-.48-.2-.78-.24-.64-.06-1.02-.06h-2.12v3.35Z"/>
    <path class="cls-1" d="M180.66,377.08c0-.62.08-1.19.25-1.73.17-.54.42-1.01.74-1.41.33-.4.73-.72,1.22-.95.48-.23,1.04-.35,1.67-.35s1.23.11,1.73.34c.5.23.91.55,1.24.95.33.4.58.87.75,1.42.17.54.25,1.12.25,1.74s-.08,1.18-.25,1.71c-.17.53-.42,1-.74,1.4-.33.4-.74.72-1.23.95-.49.23-1.06.35-1.71.35s-1.22-.12-1.71-.35c-.49-.23-.9-.55-1.23-.95-.33-.4-.57-.87-.74-1.4-.16-.53-.25-1.11-.25-1.71ZM184.59,380.82c.55,0,1.02-.1,1.41-.31.39-.21.72-.48.97-.83.25-.34.44-.74.56-1.19.12-.45.18-.92.18-1.42,0-.59-.07-1.11-.22-1.57-.14-.46-.35-.86-.63-1.19-.27-.33-.6-.58-.99-.75-.39-.17-.83-.26-1.31-.26-.54,0-1,.11-1.4.32s-.72.49-.97.84c-.25.35-.44.75-.56,1.2-.12.45-.18.92-.18,1.42s.06.97.18,1.43c.12.45.31.85.56,1.19.25.34.58.62.97.82.39.2.87.3,1.42.3Z"/>
    <path class="cls-1" d="M189.76,377.08c0-.62.08-1.19.25-1.73.17-.54.42-1.01.74-1.41.33-.4.73-.72,1.22-.95.48-.23,1.04-.35,1.67-.35s1.23.11,1.73.34c.5.23.91.55,1.24.95.33.4.58.87.75,1.42.17.54.25,1.12.25,1.74s-.08,1.18-.25,1.71c-.17.53-.42,1-.74,1.4-.33.4-.74.72-1.23.95-.49.23-1.06.35-1.71.35s-1.22-.12-1.71-.35c-.49-.23-.9-.55-1.23-.95-.33-.4-.57-.87-.74-1.4-.16-.53-.25-1.11-.25-1.71ZM193.69,380.82c.55,0,1.02-.1,1.41-.31.39-.21.72-.48.97-.83.25-.34.44-.74.56-1.19.12-.45.18-.92.18-1.42,0-.59-.07-1.11-.22-1.57-.14-.46-.35-.86-.63-1.19-.27-.33-.6-.58-.99-.75-.39-.17-.83-.26-1.31-.26-.54,0-1,.11-1.4.32s-.72.49-.97.84c-.25.35-.44.75-.56,1.2-.12.45-.18.92-.18,1.42s.06.97.18,1.43c.12.45.31.85.56,1.19.25.34.58.62.97.82.39.2.87.3,1.42.3Z"/>
    <path class="cls-1" d="M198.43,372.85h6.13v.68h-2.67v7.75h-.8v-7.75h-2.67v-.68Z"/>
    <path class="cls-1" d="M205.69,381.28v-8.42h.8v3.62h4.98v-3.62h.8v8.42h-.8v-4.13h-4.98v4.13h-.8Z"/>
    <path class="cls-1" d="M214.48,378.76c.03.37.12.69.25.95.14.26.31.47.53.64.21.16.46.28.74.36s.58.11.9.11c.37,0,.7-.05.97-.14s.5-.22.67-.38c.17-.16.3-.35.38-.56.08-.21.12-.43.12-.67,0-.33-.07-.59-.22-.79-.15-.2-.34-.37-.58-.5-.24-.13-.51-.23-.82-.31s-.62-.15-.95-.23-.64-.16-.95-.26c-.31-.1-.58-.24-.82-.41-.24-.17-.43-.39-.58-.66-.15-.27-.22-.61-.22-1.02,0-.29.06-.57.18-.84.12-.27.3-.51.54-.73.24-.21.54-.38.9-.5.36-.12.77-.19,1.24-.19s.89.07,1.25.2.65.31.88.54c.23.23.41.5.53.8.12.3.18.63.18.97h-.76c0-.32-.06-.6-.17-.83-.11-.23-.27-.42-.46-.57-.19-.15-.42-.26-.67-.33-.25-.07-.51-.11-.77-.11-.41,0-.75.06-1.02.17-.28.11-.5.26-.66.44-.16.18-.28.38-.34.6-.06.22-.07.44-.04.66.05.27.16.49.33.66.17.16.38.3.63.4s.52.19.83.26c.3.07.61.14.92.21s.61.16.91.26.55.24.78.41c.23.17.41.39.54.66.14.27.2.61.2,1.01,0,.78-.27,1.38-.81,1.81-.54.43-1.29.64-2.27.64-.44,0-.84-.06-1.22-.17s-.7-.29-.97-.51c-.27-.23-.49-.51-.64-.85-.15-.34-.23-.74-.23-1.2h.77Z"/>
  </g>
</svg>