<?xml version="1.0" encoding="UTF-8"?>
<svg id="_레이어_1" data-name="레이어 1" xmlns="http://www.w3.org/2000/svg" viewBox="0 0 272.54 38.09">
  <defs>
    <style>
      .cls-1 {
        fill: #fff;
      }
    </style>
  </defs>
  <g>
    <path class="cls-1" d="M206.66,1.86h9.06c5.47,0,9.53,4.2,9.53,9.42s-4.06,9.45-9.56,9.45h-4.09v7.57h-4.93V1.86ZM211.58,6.43v9.75h3.77c2.9,0,4.93-2.17,4.93-4.89s-2.03-4.85-4.93-4.85h-3.77Z"/>
    <path class="cls-1" d="M226.54,17.73c0-7.03,5.14-11.05,10.5-11.05,2.79,0,5.25,1.12,6.81,2.97v-2.54h4.89v21.19h-4.89v-2.75c-1.56,1.99-4.09,3.19-6.88,3.19-5.11,0-10.43-4.06-10.43-11.01ZM244.11,17.66c0-3.62-2.68-6.52-6.34-6.52s-6.41,2.86-6.41,6.52,2.79,6.59,6.41,6.59,6.34-2.93,6.34-6.59Z"/>
    <path class="cls-1" d="M259.4,27.25l-8.69-20.14h5.22l5.9,14.27,5.58-14.27h5.14l-12.64,30.97h-4.96l4.46-10.83Z"/>
  </g>
  <g>
    <polygon class="cls-1" points="158.51 .87 158.88 22.41 158.73 22.41 152.43 .87 142.25 .87 142.25 28.02 148.99 28.02 148.61 5.75 148.77 5.75 155.54 28.02 165.31 28.02 165.31 .87 158.51 .87"/>
    <polygon class="cls-1" points="29.37 .87 24.29 28.31 31.7 28.31 35.45 3.42 35.61 3.41 39.26 28.31 46.63 28.31 41.58 .87 29.37 .87"/>
    <polygon class="cls-1" points="70.82 .87 67.44 21.85 67.28 21.85 63.9 .87 52.72 .87 52.11 28.31 58.98 28.31 59.15 3.65 59.3 3.65 63.88 28.31 70.84 28.31 75.43 3.65 75.58 3.65 75.75 28.31 82.61 28.31 82.01 .87 70.82 .87"/>
    <path class="cls-1" d="M12.74,20.57c.27.66.18,1.51.05,2.03-.22.91-.84,1.85-2.67,1.85-1.72,0-2.76-.99-2.76-2.49v-2.66H0v2.12c0,6.12,4.81,7.97,9.97,7.97s9.04-1.69,9.7-6.27c.33-2.37.09-3.92-.03-4.5-1.16-5.74-11.57-7.46-12.34-10.67-.13-.56-.1-1.14-.03-1.44.19-.88.79-1.84,2.51-1.84,1.61,0,2.55.99,2.55,2.49v1.7h6.85v-1.93C19.17.93,13.8,0,9.92,0,5.04,0,1.05,1.62.33,6.09c-.2,1.22-.23,2.32.06,3.7,1.19,5.61,10.94,7.23,12.35,10.78"/>
    <path class="cls-1" d="M101.93,20.52c.26.66.18,1.5.05,2.01-.22.9-.84,1.82-2.65,1.82-1.7,0-2.73-.98-2.73-2.46v-2.63h-7.29v2.09c0,6.06,4.77,7.89,9.87,7.89s8.95-1.67,9.6-6.21c.33-2.34.09-3.88-.03-4.45-1.15-5.69-11.45-7.38-12.22-10.56-.13-.55-.1-1.12-.03-1.42.19-.87.79-1.82,2.48-1.82,1.6,0,2.53.98,2.53,2.46v1.68h6.78v-1.91c0-5.92-5.32-6.84-9.16-6.84-4.82,0-8.77,1.6-9.49,6.03-.2,1.21-.23,2.3.06,3.66,1.17,5.56,10.83,7.16,12.23,10.67"/>
    <path class="cls-1" d="M124.96,24.2c1.91,0,2.49-1.31,2.63-1.99.06-.3.07-.7.07-1.05V.87h6.94v19.67c0,.51-.04,1.54-.07,1.81-.48,5.12-4.53,6.78-9.57,6.78s-9.09-1.66-9.57-6.78c-.02-.27-.08-1.3-.06-1.81V.87h6.94v20.3c0,.35,0,.75.07,1.05.13.67.72,1.99,2.63,1.99"/>
    <path class="cls-1" d="M182.18,23.91c1.99,0,2.68-1.26,2.8-1.99.06-.31.07-.69.07-1.04v-3.98h-2.81v-4h9.72v7.35c0,.52-.02.89-.1,1.81-.45,5-4.79,6.78-9.65,6.78s-9.19-1.78-9.65-6.78c-.08-.91-.09-1.29-.09-1.81v-11.54c0-.49.06-1.35.12-1.81.61-5.13,4.76-6.78,9.63-6.78s9.12,1.63,9.63,6.78c.09.87.06,1.81.06,1.81v.91h-6.92v-1.54s0-.65-.09-1.05c-.12-.6-.65-1.99-2.74-1.99s-2.58,1.31-2.73,1.99c-.08.36-.11.85-.11,1.3v12.54c0,.35.01.73.06,1.04.13.73.82,1.99,2.81,1.99"/>
  </g>
</svg>